STARTFONT 2.1
FONT -FontForge-Bm437 EagleSpCGA Alt3-Book-R-Normal--16-150-75-75-C-160-ISO10646-1
SIZE 15 75 75
FONTBOUNDINGBOX 16 16 0 -2
COMMENT "Generated by fontforge, http://fontforge.sourceforge.net"
COMMENT "Outline (vector) version by VileR, 2020"
STARTPROPERTIES 41
FOUNDRY "FontForge"
FAMILY_NAME "Bm437 EagleSpCGA Alt3"
WEIGHT_NAME "Book"
SLANT "R"
SETWIDTH_NAME "Normal"
ADD_STYLE_NAME ""
PIXEL_SIZE 16
POINT_SIZE 150
RESOLUTION_X 75
RESOLUTION_Y 75
SPACING "C"
AVERAGE_WIDTH 160
CHARSET_REGISTRY "ISO10646"
CHARSET_ENCODING "1"
FONTNAME_REGISTRY ""
CHARSET_COLLECTIONS "ASCII ISOLatin1Encoding ISO10646-1"
FONT_NAME "Bm437_EagleSpCGA_Alt3"
FACE_NAME "Bm437 EagleSpCGA Alt3"
COPYRIGHT "Outline (vector) version by VileR, 2020"
FONT_VERSION "v2.2-2020-11"
FONT_ASCENT 14
FONT_DESCENT 2
UNDERLINE_POSITION -1
UNDERLINE_THICKNESS 2
X_HEIGHT 9
CAP_HEIGHT 13
DEFAULT_CHAR 1
RAW_ASCENT 875
RAW_DESCENT 125
NORM_SPACE 16
RELATIVE_WEIGHT 40
RELATIVE_SETWIDTH 50
SUPERSCRIPT_X 0
SUPERSCRIPT_Y 8
SUPERSCRIPT_SIZE 16
SUBSCRIPT_X 0
SUBSCRIPT_Y 8
SUBSCRIPT_SIZE 16
FIGURE_WIDTH 16
AVG_LOWERCASE_WIDTH 160
AVG_UPPERCASE_WIDTH 160
ENDPROPERTIES
CHARS 295
STARTCHAR uni0000
ENCODING 0
SWIDTH 1000 0
DWIDTH 16 0
BBX 1 1 15 -2
BITMAP
00
ENDCHAR
STARTCHAR uni0001
ENCODING 1
SWIDTH 1000 0
DWIDTH 16 0
BBX 16 16 0 -2
BITMAP
3FFC
3FFC
C003
C003
CC33
CC33
C003
C003
CFF3
CFF3
C3C3
C3C3
C003
C003
3FFC
3FFC
ENDCHAR
STARTCHAR uni0002
ENCODING 2
SWIDTH 1000 0
DWIDTH 16 0
BBX 16 16 0 -2
BITMAP
3FFC
3FFC
FFFF
FFFF
F3CF
F3CF
FFFF
FFFF
F00F
F00F
FC3F
FC3F
FFFF
FFFF
3FFC
3FFC
ENDCHAR
STARTCHAR uni0003
ENCODING 3
SWIDTH 1000 0
DWIDTH 16 0
BBX 14 14 0 0
BITMAP
3CF0
3CF0
FFFC
FFFC
FFFC
FFFC
FFFC
FFFC
3FF0
3FF0
0FC0
0FC0
0300
0300
ENDCHAR
STARTCHAR uni0004
ENCODING 4
SWIDTH 1000 0
DWIDTH 16 0
BBX 14 14 0 0
BITMAP
0300
0300
0FC0
0FC0
3FF0
3FF0
FFFC
FFFC
3FF0
3FF0
0FC0
0FC0
0300
0300
ENDCHAR
STARTCHAR uni0005
ENCODING 5
SWIDTH 1000 0
DWIDTH 16 0
BBX 14 16 0 -2
BITMAP
0FC0
0FC0
3FF0
3FF0
0FC0
0FC0
FFFC
FFFC
FFFC
FFFC
F33C
F33C
0300
0300
0FC0
0FC0
ENDCHAR
STARTCHAR uni0006
ENCODING 6
SWIDTH 1000 0
DWIDTH 16 0
BBX 14 16 0 -2
BITMAP
0300
0300
0300
0300
0FC0
0FC0
3FF0
3FF0
FFFC
FFFC
3FF0
3FF0
0300
0300
0FC0
0FC0
ENDCHAR
STARTCHAR uni0007
ENCODING 7
SWIDTH 1000 0
DWIDTH 16 0
BBX 8 8 4 2
BITMAP
3C
3C
FF
FF
FF
FF
3C
3C
ENDCHAR
STARTCHAR uni0008
ENCODING 8
SWIDTH 1000 0
DWIDTH 16 0
BBX 16 16 0 -2
BITMAP
FFFF
FFFF
FFFF
FFFF
FC3F
FC3F
F00F
F00F
F00F
F00F
FC3F
FC3F
FFFF
FFFF
FFFF
FFFF
ENDCHAR
STARTCHAR uni0009
ENCODING 9
SWIDTH 1000 0
DWIDTH 16 0
BBX 12 12 2 0
BITMAP
3FC0
3FC0
F0F0
F0F0
C030
C030
C030
C030
F0F0
F0F0
3FC0
3FC0
ENDCHAR
STARTCHAR uni000A
ENCODING 10
SWIDTH 1000 0
DWIDTH 16 0
BBX 16 16 0 -2
BITMAP
FFFF
FFFF
F00F
F00F
C3C3
C3C3
CFF3
CFF3
CFF3
CFF3
C3C3
C3C3
F00F
F00F
FFFF
FFFF
ENDCHAR
STARTCHAR uni000B
ENCODING 11
SWIDTH 1000 0
DWIDTH 16 0
BBX 16 16 0 -2
BITMAP
00FF
00FF
003F
003F
00FF
00FF
3FF3
3FF3
F0F0
F0F0
F0F0
F0F0
F0F0
F0F0
3FC0
3FC0
ENDCHAR
STARTCHAR uni000C
ENCODING 12
SWIDTH 1000 0
DWIDTH 16 0
BBX 12 16 2 -2
BITMAP
3FC0
3FC0
F0F0
F0F0
F0F0
F0F0
F0F0
F0F0
3FC0
3FC0
0F00
0F00
FFF0
FFF0
0F00
0F00
ENDCHAR
STARTCHAR uni000D
ENCODING 13
SWIDTH 1000 0
DWIDTH 16 0
BBX 16 16 0 -2
BITMAP
0FFF
0FFF
0F0F
0F0F
0FFF
0FFF
0F00
0F00
0F00
0F00
3F00
3F00
FF00
FF00
FC00
FC00
ENDCHAR
STARTCHAR uni000E
ENCODING 14
SWIDTH 1000 0
DWIDTH 16 0
BBX 16 16 0 -2
BITMAP
3FFF
3FFF
3C0F
3C0F
3FFF
3FFF
3C0F
3C0F
3C0F
3C0F
3C3F
3C3F
FC3C
FC3C
F000
F000
ENDCHAR
STARTCHAR uni000F
ENCODING 15
SWIDTH 1000 0
DWIDTH 16 0
BBX 16 16 0 -2
BITMAP
03C0
03C0
F3CF
F3CF
0FF0
0FF0
FC3F
FC3F
FC3F
FC3F
0FF0
0FF0
F3CF
F3CF
03C0
03C0
ENDCHAR
STARTCHAR uni0010
ENCODING 16
SWIDTH 1000 0
DWIDTH 16 0
BBX 14 14 0 0
BITMAP
C000
C000
FC00
FC00
FFC0
FFC0
FFFC
FFFC
FFC0
FFC0
FC00
FC00
C000
C000
ENDCHAR
STARTCHAR uni0011
ENCODING 17
SWIDTH 1000 0
DWIDTH 16 0
BBX 14 14 0 0
BITMAP
000C
000C
00FC
00FC
0FFC
0FFC
FFFC
FFFC
0FFC
0FFC
00FC
00FC
000C
000C
ENDCHAR
STARTCHAR uni0012
ENCODING 18
SWIDTH 1000 0
DWIDTH 16 0
BBX 12 16 2 -2
BITMAP
0F00
0F00
3FC0
3FC0
FFF0
FFF0
0F00
0F00
0F00
0F00
FFF0
FFF0
3FC0
3FC0
0F00
0F00
ENDCHAR
STARTCHAR uni0013
ENCODING 19
SWIDTH 1000 0
DWIDTH 16 0
BBX 12 14 2 0
BITMAP
F0F0
F0F0
F0F0
F0F0
F0F0
F0F0
F0F0
F0F0
F0F0
F0F0
0000
0000
F0F0
F0F0
ENDCHAR
STARTCHAR uni0014
ENCODING 20
SWIDTH 1000 0
DWIDTH 16 0
BBX 16 14 0 0
BITMAP
3FFF
3FFF
F3CF
F3CF
F3CF
F3CF
3FCF
3FCF
03CF
03CF
03CF
03CF
03CF
03CF
ENDCHAR
STARTCHAR uni0015
ENCODING 21
SWIDTH 1000 0
DWIDTH 16 0
BBX 16 16 0 -2
BITMAP
0FFC
0FFC
3C0F
3C0F
0FC0
0FC0
3CF0
3CF0
3CF0
3CF0
0FC0
0FC0
F0F0
F0F0
3FC0
3FC0
ENDCHAR
STARTCHAR uni0016
ENCODING 22
SWIDTH 1000 0
DWIDTH 16 0
BBX 12 6 2 0
BITMAP
FFF0
FFF0
FFF0
FFF0
FFF0
FFF0
ENDCHAR
STARTCHAR uni0017
ENCODING 23
SWIDTH 1000 0
DWIDTH 16 0
BBX 16 16 0 -2
BITMAP
03C0
03C0
0FF0
0FF0
3FFC
3FFC
03C0
03C0
3FFC
3FFC
0FF0
0FF0
03C0
03C0
FFFF
FFFF
ENDCHAR
STARTCHAR uni0018
ENCODING 24
SWIDTH 1000 0
DWIDTH 16 0
BBX 12 14 2 0
BITMAP
0F00
0F00
3FC0
3FC0
FFF0
FFF0
0F00
0F00
0F00
0F00
0F00
0F00
0F00
0F00
ENDCHAR
STARTCHAR uni0019
ENCODING 25
SWIDTH 1000 0
DWIDTH 16 0
BBX 12 14 2 0
BITMAP
0F00
0F00
0F00
0F00
0F00
0F00
0F00
0F00
FFF0
FFF0
3FC0
3FC0
0F00
0F00
ENDCHAR
STARTCHAR uni001A
ENCODING 26
SWIDTH 1000 0
DWIDTH 16 0
BBX 14 10 0 2
BITMAP
03C0
03C0
00F0
00F0
FFFC
FFFC
00F0
00F0
03C0
03C0
ENDCHAR
STARTCHAR uni001B
ENCODING 27
SWIDTH 1000 0
DWIDTH 16 0
BBX 14 10 0 2
BITMAP
0F00
0F00
3C00
3C00
FFFC
FFFC
3C00
3C00
0F00
0F00
ENDCHAR
STARTCHAR uni001C
ENCODING 28
SWIDTH 1000 0
DWIDTH 16 0
BBX 14 8 0 2
BITMAP
F000
F000
F000
F000
F000
F000
FFFC
FFFC
ENDCHAR
STARTCHAR uni001D
ENCODING 29
SWIDTH 1000 0
DWIDTH 16 0
BBX 16 10 0 2
BITMAP
0C30
0C30
3C3C
3C3C
FFFF
FFFF
3C3C
3C3C
0C30
0C30
ENDCHAR
STARTCHAR uni001E
ENCODING 30
SWIDTH 1000 0
DWIDTH 16 0
BBX 16 10 0 2
BITMAP
03C0
03C0
0FF0
0FF0
3FFC
3FFC
FFFF
FFFF
FFFF
FFFF
ENDCHAR
STARTCHAR uni001F
ENCODING 31
SWIDTH 1000 0
DWIDTH 16 0
BBX 16 10 0 2
BITMAP
FFFF
FFFF
FFFF
FFFF
3FFC
3FFC
0FF0
0FF0
03C0
03C0
ENDCHAR
STARTCHAR space
ENCODING 32
SWIDTH 1000 0
DWIDTH 16 0
BBX 1 1 15 -2
BITMAP
00
ENDCHAR
STARTCHAR exclam
ENCODING 33
SWIDTH 1000 0
DWIDTH 16 0
BBX 4 14 4 0
BITMAP
F0
F0
F0
F0
F0
F0
F0
F0
00
00
F0
F0
F0
F0
ENDCHAR
STARTCHAR quotedbl
ENCODING 34
SWIDTH 1000 0
DWIDTH 16 0
BBX 12 6 0 8
BITMAP
F0F0
F0F0
F0F0
F0F0
F0F0
F0F0
ENDCHAR
STARTCHAR numbersign
ENCODING 35
SWIDTH 1000 0
DWIDTH 16 0
BBX 12 14 0 0
BITMAP
3CC0
3CC0
FFF0
FFF0
3CC0
3CC0
3CC0
3CC0
3CC0
3CC0
FFF0
FFF0
3CC0
3CC0
ENDCHAR
STARTCHAR dollar
ENCODING 36
SWIDTH 1000 0
DWIDTH 16 0
BBX 12 14 0 0
BITMAP
0F00
0F00
3FF0
3FF0
F000
F000
3FC0
3FC0
00F0
00F0
FFC0
FFC0
0F00
0F00
ENDCHAR
STARTCHAR percent
ENCODING 37
SWIDTH 1000 0
DWIDTH 16 0
BBX 12 12 0 0
BITMAP
F030
F030
F0C0
F0C0
0300
0300
0C00
0C00
30F0
30F0
C0F0
C0F0
ENDCHAR
STARTCHAR ampersand
ENCODING 38
SWIDTH 1000 0
DWIDTH 16 0
BBX 12 14 0 0
BITMAP
3FC0
3FC0
F030
F030
3F00
3F00
F000
F000
F0F0
F0F0
F030
F030
3FC0
3FC0
ENDCHAR
STARTCHAR quotesingle
ENCODING 39
SWIDTH 1000 0
DWIDTH 16 0
BBX 6 6 2 8
BITMAP
3C
3C
3C
3C
F0
F0
ENDCHAR
STARTCHAR parenleft
ENCODING 40
SWIDTH 1000 0
DWIDTH 16 0
BBX 8 14 2 0
BITMAP
0F
0F
3C
3C
F0
F0
F0
F0
F0
F0
3C
3C
0F
0F
ENDCHAR
STARTCHAR parenright
ENCODING 41
SWIDTH 1000 0
DWIDTH 16 0
BBX 8 14 2 0
BITMAP
F0
F0
3C
3C
0F
0F
0F
0F
0F
0F
3C
3C
F0
F0
ENDCHAR
STARTCHAR asterisk
ENCODING 42
SWIDTH 1000 0
DWIDTH 16 0
BBX 12 14 0 0
BITMAP
0F00
0F00
CF30
CF30
3FC0
3FC0
FFF0
FFF0
3FC0
3FC0
CF30
CF30
0F00
0F00
ENDCHAR
STARTCHAR plus
ENCODING 43
SWIDTH 1000 0
DWIDTH 16 0
BBX 10 10 0 2
BITMAP
0C00
0C00
0C00
0C00
FFC0
FFC0
0C00
0C00
0C00
0C00
ENDCHAR
STARTCHAR comma
ENCODING 44
SWIDTH 1000 0
DWIDTH 16 0
BBX 6 6 2 -2
BITMAP
3C
3C
3C
3C
F0
F0
ENDCHAR
STARTCHAR hyphen
ENCODING 45
SWIDTH 1000 0
DWIDTH 16 0
BBX 12 2 0 6
BITMAP
FFF0
FFF0
ENDCHAR
STARTCHAR period
ENCODING 46
SWIDTH 1000 0
DWIDTH 16 0
BBX 4 4 2 0
BITMAP
F0
F0
F0
F0
ENDCHAR
STARTCHAR slash
ENCODING 47
SWIDTH 1000 0
DWIDTH 16 0
BBX 14 14 0 0
BITMAP
000C
000C
0030
0030
00C0
00C0
0300
0300
0C00
0C00
3000
3000
C000
C000
ENDCHAR
STARTCHAR zero
ENCODING 48
SWIDTH 1000 0
DWIDTH 16 0
BBX 12 14 0 0
BITMAP
3FC0
3FC0
F030
F030
F0F0
F0F0
F330
F330
FC30
FC30
F030
F030
3FC0
3FC0
ENDCHAR
STARTCHAR one
ENCODING 49
SWIDTH 1000 0
DWIDTH 16 0
BBX 8 14 4 0
BITMAP
3C
3C
FC
FC
3C
3C
3C
3C
3C
3C
3C
3C
FF
FF
ENDCHAR
STARTCHAR two
ENCODING 50
SWIDTH 1000 0
DWIDTH 16 0
BBX 12 14 0 0
BITMAP
3FC0
3FC0
C0F0
C0F0
00F0
00F0
0FC0
0FC0
3F00
3F00
F000
F000
FFF0
FFF0
ENDCHAR
STARTCHAR three
ENCODING 51
SWIDTH 1000 0
DWIDTH 16 0
BBX 12 14 0 0
BITMAP
3FC0
3FC0
C0F0
C0F0
00F0
00F0
0FC0
0FC0
00F0
00F0
C0F0
C0F0
3FC0
3FC0
ENDCHAR
STARTCHAR four
ENCODING 52
SWIDTH 1000 0
DWIDTH 16 0
BBX 14 14 0 0
BITMAP
03F0
03F0
0CF0
0CF0
30F0
30F0
C0F0
C0F0
FFFC
FFFC
00F0
00F0
03FC
03FC
ENDCHAR
STARTCHAR five
ENCODING 53
SWIDTH 1000 0
DWIDTH 16 0
BBX 12 14 0 0
BITMAP
FFF0
FFF0
C030
C030
C000
C000
FFC0
FFC0
00F0
00F0
C0F0
C0F0
3FC0
3FC0
ENDCHAR
STARTCHAR six
ENCODING 54
SWIDTH 1000 0
DWIDTH 16 0
BBX 12 14 0 0
BITMAP
3FC0
3FC0
F030
F030
F000
F000
FFC0
FFC0
F030
F030
F030
F030
3FC0
3FC0
ENDCHAR
STARTCHAR seven
ENCODING 55
SWIDTH 1000 0
DWIDTH 16 0
BBX 14 14 0 0
BITMAP
FFFC
FFFC
C0F0
C0F0
03C0
03C0
03C0
03C0
0F00
0F00
0F00
0F00
0F00
0F00
ENDCHAR
STARTCHAR eight
ENCODING 56
SWIDTH 1000 0
DWIDTH 16 0
BBX 12 14 0 0
BITMAP
3FC0
3FC0
F030
F030
F030
F030
3FC0
3FC0
F030
F030
F030
F030
3FC0
3FC0
ENDCHAR
STARTCHAR nine
ENCODING 57
SWIDTH 1000 0
DWIDTH 16 0
BBX 12 14 0 0
BITMAP
3FC0
3FC0
C0F0
C0F0
C0F0
C0F0
3FF0
3FF0
00F0
00F0
C0F0
C0F0
3FC0
3FC0
ENDCHAR
STARTCHAR colon
ENCODING 58
SWIDTH 1000 0
DWIDTH 16 0
BBX 4 10 2 0
BITMAP
F0
F0
F0
F0
00
00
F0
F0
F0
F0
ENDCHAR
STARTCHAR semicolon
ENCODING 59
SWIDTH 1000 0
DWIDTH 16 0
BBX 6 12 0 -2
BITMAP
3C
3C
3C
3C
00
00
3C
3C
3C
3C
F0
F0
ENDCHAR
STARTCHAR less
ENCODING 60
SWIDTH 1000 0
DWIDTH 16 0
BBX 10 14 2 0
BITMAP
03C0
03C0
0F00
0F00
3C00
3C00
F000
F000
3C00
3C00
0F00
0F00
03C0
03C0
ENDCHAR
STARTCHAR equal
ENCODING 61
SWIDTH 1000 0
DWIDTH 16 0
BBX 12 6 2 4
BITMAP
FFF0
FFF0
0000
0000
FFF0
FFF0
ENDCHAR
STARTCHAR greater
ENCODING 62
SWIDTH 1000 0
DWIDTH 16 0
BBX 10 14 0 0
BITMAP
F000
F000
3C00
3C00
0F00
0F00
03C0
03C0
0F00
0F00
3C00
3C00
F000
F000
ENDCHAR
STARTCHAR question
ENCODING 63
SWIDTH 1000 0
DWIDTH 16 0
BBX 12 14 0 0
BITMAP
3FC0
3FC0
C0F0
C0F0
00F0
00F0
03C0
03C0
0F00
0F00
0000
0000
0F00
0F00
ENDCHAR
STARTCHAR at
ENCODING 64
SWIDTH 1000 0
DWIDTH 16 0
BBX 12 14 0 0
BITMAP
3FC0
3FC0
F030
F030
F330
F330
FCF0
FCF0
F3C0
F3C0
F000
F000
3FF0
3FF0
ENDCHAR
STARTCHAR A
ENCODING 65
SWIDTH 1000 0
DWIDTH 16 0
BBX 14 14 0 0
BITMAP
3F00
3F00
C3C0
C3C0
0CF0
0CF0
303C
303C
3FFC
3FFC
303C
303C
FCFC
FCFC
ENDCHAR
STARTCHAR B
ENCODING 66
SWIDTH 1000 0
DWIDTH 16 0
BBX 14 14 0 0
BITMAP
F3F0
F3F0
3C3C
3C3C
F03C
F03C
FFF0
FFF0
F03C
F03C
3C3C
3C3C
F3F0
F3F0
ENDCHAR
STARTCHAR C
ENCODING 67
SWIDTH 1000 0
DWIDTH 16 0
BBX 14 14 0 0
BITMAP
0FF0
0FF0
300C
300C
F030
F030
F000
F000
F000
F000
300C
300C
0FF0
0FF0
ENDCHAR
STARTCHAR D
ENCODING 68
SWIDTH 1000 0
DWIDTH 16 0
BBX 14 14 0 0
BITMAP
F3C0
F3C0
3C30
3C30
F03C
F03C
F03C
F03C
F03C
F03C
3C30
3C30
F3C0
F3C0
ENDCHAR
STARTCHAR E
ENCODING 69
SWIDTH 1000 0
DWIDTH 16 0
BBX 14 14 0 0
BITMAP
F3F0
F3F0
3C3C
3C3C
F000
F000
FFC0
FFC0
F000
F000
3C3C
3C3C
F3F0
F3F0
ENDCHAR
STARTCHAR F
ENCODING 70
SWIDTH 1000 0
DWIDTH 16 0
BBX 14 14 0 0
BITMAP
F3F0
F3F0
3C3C
3C3C
F000
F000
FFC0
FFC0
F000
F000
3000
3000
FC00
FC00
ENDCHAR
STARTCHAR G
ENCODING 71
SWIDTH 1000 0
DWIDTH 16 0
BBX 14 16 0 -2
BITMAP
0FF0
0FF0
303C
303C
F000
F000
F3FC
F3FC
F03C
F03C
30FC
30FC
0F3C
0F3C
00F0
00F0
ENDCHAR
STARTCHAR H
ENCODING 72
SWIDTH 1000 0
DWIDTH 16 0
BBX 14 16 0 -2
BITMAP
CF00
CF00
3000
3000
F3C0
F3C0
FC3C
FC3C
F03C
F03C
303C
303C
FC30
FC30
00C0
00C0
ENDCHAR
STARTCHAR I
ENCODING 73
SWIDTH 1000 0
DWIDTH 16 0
BBX 14 16 0 -2
BITMAP
3FFC
3FFC
C3C0
C3C0
03C0
03C0
03C0
03C0
03C0
03C0
03C0
03C0
3FFC
3FFC
C000
C000
ENDCHAR
STARTCHAR J
ENCODING 74
SWIDTH 1000 0
DWIDTH 16 0
BBX 14 14 0 0
BITMAP
03FC
03FC
0030
0030
00F0
00F0
0030
0030
3C30
3C30
F0F0
F0F0
3FC0
3FC0
ENDCHAR
STARTCHAR K
ENCODING 75
SWIDTH 1000 0
DWIDTH 16 0
BBX 14 14 0 0
BITMAP
FC3C
FC3C
30F0
30F0
F3C0
F3C0
FF00
FF00
F3C0
F3C0
30F0
30F0
FC3C
FC3C
ENDCHAR
STARTCHAR L
ENCODING 76
SWIDTH 1000 0
DWIDTH 16 0
BBX 14 14 0 0
BITMAP
CF00
CF00
3000
3000
F000
F000
F000
F000
F000
F000
303C
303C
CFF0
CFF0
ENDCHAR
STARTCHAR M
ENCODING 77
SWIDTH 1000 0
DWIDTH 16 0
BBX 14 14 0 0
BITMAP
CCC0
CCC0
3330
3330
F330
F330
F330
F330
F330
F330
3030
3030
FCFC
FCFC
ENDCHAR
STARTCHAR N
ENCODING 78
SWIDTH 1000 0
DWIDTH 16 0
BBX 14 14 0 0
BITMAP
F0FC
F0FC
3C30
3C30
F330
F330
F330
F330
F330
F330
30F0
30F0
F030
F030
ENDCHAR
STARTCHAR O
ENCODING 79
SWIDTH 1000 0
DWIDTH 16 0
BBX 14 14 0 0
BITMAP
0FC0
0FC0
3030
3030
F00C
F00C
F00C
F00C
F00C
F00C
3030
3030
0FC0
0FC0
ENDCHAR
STARTCHAR P
ENCODING 80
SWIDTH 1000 0
DWIDTH 16 0
BBX 14 14 0 0
BITMAP
CFF0
CFF0
303C
303C
F03C
F03C
FFF0
FFF0
F000
F000
3000
3000
FC00
FC00
ENDCHAR
STARTCHAR Q
ENCODING 81
SWIDTH 1000 0
DWIDTH 16 0
BBX 14 16 0 -2
BITMAP
0FC0
0FC0
3030
3030
F00C
F00C
F00C
F00C
F3CC
F3CC
30F0
30F0
0FF0
0FF0
003C
003C
ENDCHAR
STARTCHAR R
ENCODING 82
SWIDTH 1000 0
DWIDTH 16 0
BBX 14 14 0 0
BITMAP
CFC0
CFC0
303C
303C
F03C
F03C
FFC0
FFC0
F3C0
F3C0
30F0
30F0
FC3C
FC3C
ENDCHAR
STARTCHAR S
ENCODING 83
SWIDTH 1000 0
DWIDTH 16 0
BBX 14 14 0 0
BITMAP
3FF0
3FF0
CC3C
CC3C
3300
3300
0CC0
0CC0
0330
0330
F0CC
F0CC
3FF0
3FF0
ENDCHAR
STARTCHAR T
ENCODING 84
SWIDTH 1000 0
DWIDTH 16 0
BBX 14 14 0 0
BITMAP
FFFC
FFFC
0C00
0C00
3000
3000
F000
F000
F000
F000
303C
303C
0FF0
0FF0
ENDCHAR
STARTCHAR U
ENCODING 85
SWIDTH 1000 0
DWIDTH 16 0
BBX 14 14 0 0
BITMAP
F03C
F03C
3030
3030
F030
F030
F030
F030
F030
F030
3030
3030
0FC0
0FC0
ENDCHAR
STARTCHAR V
ENCODING 86
SWIDTH 1000 0
DWIDTH 16 0
BBX 14 14 0 0
BITMAP
F0F0
F0F0
300C
300C
F00C
F00C
F030
F030
F0C0
F0C0
3300
3300
FC00
FC00
ENDCHAR
STARTCHAR W
ENCODING 87
SWIDTH 1000 0
DWIDTH 16 0
BBX 14 14 0 0
BITMAP
F0F0
F0F0
300C
300C
F30C
F30C
F30C
F30C
F30C
F30C
3330
3330
FCC0
FCC0
ENDCHAR
STARTCHAR X
ENCODING 88
SWIDTH 1000 0
DWIDTH 16 0
BBX 14 14 0 0
BITMAP
FC0C
FC0C
3C30
3C30
0FC0
0FC0
0300
0300
0FC0
0FC0
30F0
30F0
C0FC
C0FC
ENDCHAR
STARTCHAR Y
ENCODING 89
SWIDTH 1000 0
DWIDTH 16 0
BBX 14 14 0 0
BITMAP
F0FC
F0FC
303C
303C
303C
303C
303C
303C
0FFC
0FFC
C03C
C03C
3FF0
3FF0
ENDCHAR
STARTCHAR Z
ENCODING 90
SWIDTH 1000 0
DWIDTH 16 0
BBX 14 14 0 0
BITMAP
FFFC
FFFC
C030
C030
00C0
00C0
3FF0
3FF0
0C00
0C00
300C
300C
FFFC
FFFC
ENDCHAR
STARTCHAR bracketleft
ENCODING 91
SWIDTH 1000 0
DWIDTH 16 0
BBX 10 14 2 0
BITMAP
FFC0
FFC0
FC00
FC00
FC00
FC00
FC00
FC00
FC00
FC00
FC00
FC00
FFC0
FFC0
ENDCHAR
STARTCHAR backslash
ENCODING 92
SWIDTH 1000 0
DWIDTH 16 0
BBX 14 14 0 0
BITMAP
C000
C000
3000
3000
0C00
0C00
0300
0300
00C0
00C0
0030
0030
000C
000C
ENDCHAR
STARTCHAR bracketright
ENCODING 93
SWIDTH 1000 0
DWIDTH 16 0
BBX 10 14 2 0
BITMAP
FFC0
FFC0
0FC0
0FC0
0FC0
0FC0
0FC0
0FC0
0FC0
0FC0
0FC0
0FC0
FFC0
FFC0
ENDCHAR
STARTCHAR asciicircum
ENCODING 94
SWIDTH 1000 0
DWIDTH 16 0
BBX 10 6 0 8
BITMAP
0C00
0C00
3F00
3F00
F0C0
F0C0
ENDCHAR
STARTCHAR underscore
ENCODING 95
SWIDTH 1000 0
DWIDTH 16 0
BBX 14 2 0 -2
BITMAP
FFFC
FFFC
ENDCHAR
STARTCHAR grave
ENCODING 96
SWIDTH 1000 0
DWIDTH 16 0
BBX 6 6 4 8
BITMAP
F0
F0
F0
F0
3C
3C
ENDCHAR
STARTCHAR a
ENCODING 97
SWIDTH 1000 0
DWIDTH 16 0
BBX 14 10 0 0
BITMAP
3FC0
3FC0
00F0
00F0
3FF0
3FF0
F0F0
F0F0
3F3C
3F3C
ENDCHAR
STARTCHAR b
ENCODING 98
SWIDTH 1000 0
DWIDTH 16 0
BBX 14 14 0 0
BITMAP
F000
F000
F000
F000
F3C0
F3C0
F0F0
F0F0
F03C
F03C
3C30
3C30
0FC0
0FC0
ENDCHAR
STARTCHAR c
ENCODING 99
SWIDTH 1000 0
DWIDTH 16 0
BBX 12 10 0 0
BITMAP
0FC0
0FC0
30F0
30F0
F000
F000
3C30
3C30
0FC0
0FC0
ENDCHAR
STARTCHAR d
ENCODING 100
SWIDTH 1000 0
DWIDTH 16 0
BBX 14 14 0 0
BITMAP
3C00
3C00
0F00
0F00
0FC0
0FC0
30F0
30F0
F03C
F03C
3C30
3C30
0FC0
0FC0
ENDCHAR
STARTCHAR e
ENCODING 101
SWIDTH 1000 0
DWIDTH 16 0
BBX 14 10 0 0
BITMAP
0FC0
0FC0
30F0
30F0
F3C0
F3C0
3F0C
3F0C
0FF0
0FF0
ENDCHAR
STARTCHAR f
ENCODING 102
SWIDTH 1000 0
DWIDTH 16 0
BBX 12 16 0 -2
BITMAP
0300
0300
0FC0
0FC0
3C30
3C30
3C00
3C00
FF00
FF00
3C00
3C00
3C00
3C00
F000
F000
ENDCHAR
STARTCHAR g
ENCODING 103
SWIDTH 1000 0
DWIDTH 16 0
BBX 14 12 0 -2
BITMAP
0FC0
0FC0
30F0
30F0
F03C
F03C
3FFC
3FFC
003C
003C
0FF0
0FF0
ENDCHAR
STARTCHAR h
ENCODING 104
SWIDTH 1000 0
DWIDTH 16 0
BBX 14 16 0 -2
BITMAP
F000
F000
3C00
3C00
3FC0
3FC0
3C30
3C30
3C3C
3C3C
3C3C
3C3C
3C3C
3C3C
0030
0030
ENDCHAR
STARTCHAR i
ENCODING 105
SWIDTH 1000 0
DWIDTH 16 0
BBX 8 14 2 0
BITMAP
30
30
00
00
F0
F0
3C
3C
3C
3C
3C
3C
0F
0F
ENDCHAR
STARTCHAR j
ENCODING 106
SWIDTH 1000 0
DWIDTH 16 0
BBX 10 16 0 -2
BITMAP
0300
0300
0000
0000
0F00
0F00
03C0
03C0
03C0
03C0
03C0
03C0
C3C0
C3C0
3F00
3F00
ENDCHAR
STARTCHAR k
ENCODING 107
SWIDTH 1000 0
DWIDTH 16 0
BBX 14 14 0 0
BITMAP
F000
F000
3C00
3C00
3C30
3C30
3CC0
3CC0
3FC0
3FC0
3CF0
3CF0
3C3C
3C3C
ENDCHAR
STARTCHAR l
ENCODING 108
SWIDTH 1000 0
DWIDTH 16 0
BBX 6 14 2 0
BITMAP
F0
F0
3C
3C
3C
3C
3C
3C
3C
3C
3C
3C
3C
3C
ENDCHAR
STARTCHAR m
ENCODING 109
SWIDTH 1000 0
DWIDTH 16 0
BBX 14 10 0 0
BITMAP
FCF0
FCF0
F33C
F33C
F33C
F33C
F03C
F03C
300C
300C
ENDCHAR
STARTCHAR n
ENCODING 110
SWIDTH 1000 0
DWIDTH 16 0
BBX 14 10 0 0
BITMAP
F3F0
F3F0
3C3C
3C3C
3C3C
3C3C
3C3C
3C3C
0C0C
0C0C
ENDCHAR
STARTCHAR o
ENCODING 111
SWIDTH 1000 0
DWIDTH 16 0
BBX 14 10 0 0
BITMAP
0FC0
0FC0
30F0
30F0
F03C
F03C
3C30
3C30
0FC0
0FC0
ENDCHAR
STARTCHAR p
ENCODING 112
SWIDTH 1000 0
DWIDTH 16 0
BBX 14 12 0 -2
BITMAP
0FC0
0FC0
30F0
30F0
F03C
F03C
3FF0
3FF0
3C00
3C00
3C00
3C00
ENDCHAR
STARTCHAR q
ENCODING 113
SWIDTH 1000 0
DWIDTH 16 0
BBX 14 12 0 -2
BITMAP
0FC0
0FC0
30F0
30F0
F03C
F03C
3FF0
3FF0
00F0
00F0
00F0
00F0
ENDCHAR
STARTCHAR r
ENCODING 114
SWIDTH 1000 0
DWIDTH 16 0
BBX 14 10 0 0
BITMAP
F3F0
F3F0
3C3C
3C3C
3C00
3C00
3C00
3C00
0F00
0F00
ENDCHAR
STARTCHAR s
ENCODING 115
SWIDTH 1000 0
DWIDTH 16 0
BBX 14 10 0 0
BITMAP
3FF0
3FF0
F00C
F00C
0FC0
0FC0
C03C
C03C
3FF0
3FF0
ENDCHAR
STARTCHAR t
ENCODING 116
SWIDTH 1000 0
DWIDTH 16 0
BBX 10 14 2 0
BITMAP
0C00
0C00
3C00
3C00
FFC0
FFC0
3C00
3C00
3C00
3C00
3C00
3C00
0F00
0F00
ENDCHAR
STARTCHAR u
ENCODING 117
SWIDTH 1000 0
DWIDTH 16 0
BBX 14 10 0 0
BITMAP
C0C0
C0C0
F0F0
F0F0
F0F0
F0F0
F0F0
F0F0
3F3C
3F3C
ENDCHAR
STARTCHAR v
ENCODING 118
SWIDTH 1000 0
DWIDTH 16 0
BBX 14 12 0 0
BITMAP
00F0
00F0
F03C
F03C
3C30
3C30
3CC0
3CC0
3F00
3F00
0C00
0C00
ENDCHAR
STARTCHAR w
ENCODING 119
SWIDTH 1000 0
DWIDTH 16 0
BBX 14 10 0 0
BITMAP
C030
C030
F03C
F03C
F33C
F33C
F33C
F33C
3CF0
3CF0
ENDCHAR
STARTCHAR x
ENCODING 120
SWIDTH 1000 0
DWIDTH 16 0
BBX 14 10 0 0
BITMAP
F03C
F03C
3CF0
3CF0
0FC0
0FC0
3CF0
3CF0
F03C
F03C
ENDCHAR
STARTCHAR y
ENCODING 121
SWIDTH 1000 0
DWIDTH 16 0
BBX 14 12 0 -2
BITMAP
C030
C030
F03C
F03C
F03C
F03C
3FFC
3FFC
003C
003C
0FF0
0FF0
ENDCHAR
STARTCHAR z
ENCODING 122
SWIDTH 1000 0
DWIDTH 16 0
BBX 14 10 0 0
BITMAP
3FF0
3FF0
03C0
03C0
0F00
0F00
3C00
3C00
FFFC
FFFC
ENDCHAR
STARTCHAR braceleft
ENCODING 123
SWIDTH 1000 0
DWIDTH 16 0
BBX 10 14 2 0
BITMAP
0FC0
0FC0
3C00
3C00
3C00
3C00
F000
F000
3C00
3C00
3C00
3C00
0FC0
0FC0
ENDCHAR
STARTCHAR bar
ENCODING 124
SWIDTH 1000 0
DWIDTH 16 0
BBX 4 16 6 -2
BITMAP
F0
F0
F0
F0
F0
F0
F0
F0
F0
F0
F0
F0
F0
F0
F0
F0
ENDCHAR
STARTCHAR braceright
ENCODING 125
SWIDTH 1000 0
DWIDTH 16 0
BBX 10 14 2 0
BITMAP
FC00
FC00
0F00
0F00
0F00
0F00
03C0
03C0
0F00
0F00
0F00
0F00
FC00
FC00
ENDCHAR
STARTCHAR asciitilde
ENCODING 126
SWIDTH 1000 0
DWIDTH 16 0
BBX 12 4 2 10
BITMAP
3C30
3C30
C3C0
C3C0
ENDCHAR
STARTCHAR uni007F
ENCODING 127
SWIDTH 1000 0
DWIDTH 16 0
BBX 1 1 15 -2
BITMAP
00
ENDCHAR
STARTCHAR uni00A0
ENCODING 160
SWIDTH 1000 0
DWIDTH 16 0
BBX 1 1 15 -2
BITMAP
00
ENDCHAR
STARTCHAR exclamdown
ENCODING 161
SWIDTH 1000 0
DWIDTH 16 0
BBX 4 14 6 0
BITMAP
F0
F0
F0
F0
00
00
F0
F0
F0
F0
F0
F0
F0
F0
ENDCHAR
STARTCHAR cent
ENCODING 162
SWIDTH 1000 0
DWIDTH 16 0
BBX 14 16 0 -2
BITMAP
03C0
03C0
03C0
03C0
3FFC
3FFC
F000
F000
F000
F000
3FFC
3FFC
03C0
03C0
03C0
03C0
ENDCHAR
STARTCHAR sterling
ENCODING 163
SWIDTH 1000 0
DWIDTH 16 0
BBX 14 14 0 0
BITMAP
0FC0
0FC0
3CF0
3CF0
3C30
3C30
FF00
FF00
3C00
3C00
FC3C
FC3C
FFF0
FFF0
ENDCHAR
STARTCHAR yen
ENCODING 165
SWIDTH 1000 0
DWIDTH 16 0
BBX 12 16 0 -2
BITMAP
F0F0
F0F0
F0F0
F0F0
3FC0
3FC0
FFF0
FFF0
0F00
0F00
FFF0
FFF0
0F00
0F00
0F00
0F00
ENDCHAR
STARTCHAR section
ENCODING 167
SWIDTH 1000 0
DWIDTH 16 0
BBX 16 16 0 -2
BITMAP
0FFC
0FFC
3C0F
3C0F
0FC0
0FC0
3CF0
3CF0
3CF0
3CF0
0FC0
0FC0
F0F0
F0F0
3FC0
3FC0
ENDCHAR
STARTCHAR ordfeminine
ENCODING 170
SWIDTH 1000 0
DWIDTH 16 0
BBX 12 12 2 2
BITMAP
3FC0
3FC0
F3C0
F3C0
F3C0
F3C0
3FF0
3FF0
0000
0000
FFF0
FFF0
ENDCHAR
STARTCHAR guillemotleft
ENCODING 171
SWIDTH 1000 0
DWIDTH 16 0
BBX 16 10 0 2
BITMAP
0F0F
0F0F
3C3C
3C3C
F0F0
F0F0
3C3C
3C3C
0F0F
0F0F
ENDCHAR
STARTCHAR logicalnot
ENCODING 172
SWIDTH 1000 0
DWIDTH 16 0
BBX 12 6 0 2
BITMAP
FFF0
FFF0
00F0
00F0
00F0
00F0
ENDCHAR
STARTCHAR degree
ENCODING 176
SWIDTH 1000 0
DWIDTH 16 0
BBX 10 8 2 6
BITMAP
3F00
3F00
F3C0
F3C0
F3C0
F3C0
3F00
3F00
ENDCHAR
STARTCHAR plusminus
ENCODING 177
SWIDTH 1000 0
DWIDTH 16 0
BBX 12 14 0 0
BITMAP
0F00
0F00
0F00
0F00
FFF0
FFF0
0F00
0F00
0F00
0F00
0000
0000
FFF0
FFF0
ENDCHAR
STARTCHAR uni00B2
ENCODING 178
SWIDTH 1000 0
DWIDTH 16 0
BBX 8 10 2 4
BITMAP
FC
FC
0F
0F
3C
3C
F0
F0
FF
FF
ENDCHAR
STARTCHAR mu
ENCODING 181
SWIDTH 1000 0
DWIDTH 16 0
BBX 14 14 0 -2
BITMAP
3C3C
3C3C
3C3C
3C3C
3C3C
3C3C
3C3C
3C3C
3FF0
3FF0
3C00
3C00
F000
F000
ENDCHAR
STARTCHAR paragraph
ENCODING 182
SWIDTH 1000 0
DWIDTH 16 0
BBX 16 14 0 0
BITMAP
3FFF
3FFF
F3CF
F3CF
F3CF
F3CF
3FCF
3FCF
03CF
03CF
03CF
03CF
03CF
03CF
ENDCHAR
STARTCHAR periodcentered
ENCODING 183
SWIDTH 1000 0
DWIDTH 16 0
BBX 4 2 6 4
BITMAP
F0
F0
ENDCHAR
STARTCHAR ordmasculine
ENCODING 186
SWIDTH 1000 0
DWIDTH 16 0
BBX 10 12 2 2
BITMAP
3F00
3F00
F3C0
F3C0
F3C0
F3C0
3F00
3F00
0000
0000
FFC0
FFC0
ENDCHAR
STARTCHAR guillemotright
ENCODING 187
SWIDTH 1000 0
DWIDTH 16 0
BBX 16 10 0 2
BITMAP
F0F0
F0F0
3C3C
3C3C
0F0F
0F0F
3C3C
3C3C
F0F0
F0F0
ENDCHAR
STARTCHAR onequarter
ENCODING 188
SWIDTH 1000 0
DWIDTH 16 0
BBX 16 16 0 -2
BITMAP
F00F
F00F
F03C
F03C
F0F0
F0F0
F3CF
F3CF
0F3F
0F3F
3CFF
3CFF
F0FF
F0FF
000F
000F
ENDCHAR
STARTCHAR onehalf
ENCODING 189
SWIDTH 1000 0
DWIDTH 16 0
BBX 16 16 0 -2
BITMAP
F00F
F00F
F03C
F03C
F0F0
F0F0
F3FC
F3FC
0F0F
0F0F
3C3C
3C3C
F0F0
F0F0
00FF
00FF
ENDCHAR
STARTCHAR questiondown
ENCODING 191
SWIDTH 1000 0
DWIDTH 16 0
BBX 12 14 0 0
BITMAP
0F00
0F00
0000
0000
0F00
0F00
3C00
3C00
F000
F000
F0F0
F0F0
3FC0
3FC0
ENDCHAR
STARTCHAR Adieresis
ENCODING 196
SWIDTH 1000 0
DWIDTH 16 0
BBX 14 14 0 0
BITMAP
F03C
F03C
0FC0
0FC0
3CF0
3CF0
F03C
F03C
FFFC
FFFC
F03C
F03C
F03C
F03C
ENDCHAR
STARTCHAR Aring
ENCODING 197
SWIDTH 1000 0
DWIDTH 16 0
BBX 12 14 0 0
BITMAP
0F00
0F00
0F00
0F00
0000
0000
3FC0
3FC0
F0F0
F0F0
FFF0
FFF0
F0F0
F0F0
ENDCHAR
STARTCHAR AE
ENCODING 198
SWIDTH 1000 0
DWIDTH 16 0
BBX 14 14 0 0
BITMAP
0FFC
0FFC
3CF0
3CF0
F0F0
F0F0
FFFC
FFFC
F0F0
F0F0
F0F0
F0F0
F0FC
F0FC
ENDCHAR
STARTCHAR Ccedilla
ENCODING 199
SWIDTH 1000 0
DWIDTH 16 0
BBX 12 16 0 -2
BITMAP
3FC0
3FC0
F0F0
F0F0
F000
F000
F0F0
F0F0
3FC0
3FC0
03C0
03C0
00F0
00F0
3FC0
3FC0
ENDCHAR
STARTCHAR Eacute
ENCODING 201
SWIDTH 1000 0
DWIDTH 16 0
BBX 12 14 0 0
BITMAP
03F0
03F0
0000
0000
FFF0
FFF0
3C00
3C00
3FC0
3FC0
3C00
3C00
FFF0
FFF0
ENDCHAR
STARTCHAR Ntilde
ENCODING 209
SWIDTH 1000 0
DWIDTH 16 0
BBX 12 14 0 0
BITMAP
FFF0
FFF0
0000
0000
F0F0
F0F0
FCF0
FCF0
FFF0
FFF0
F3F0
F3F0
F0F0
F0F0
ENDCHAR
STARTCHAR Odieresis
ENCODING 214
SWIDTH 1000 0
DWIDTH 16 0
BBX 16 14 0 0
BITMAP
F00F
F00F
03C0
03C0
0FF0
0FF0
3C3C
3C3C
3C3C
3C3C
0FF0
0FF0
03C0
03C0
ENDCHAR
STARTCHAR Udieresis
ENCODING 220
SWIDTH 1000 0
DWIDTH 16 0
BBX 12 14 0 0
BITMAP
F0F0
F0F0
0000
0000
F0F0
F0F0
F0F0
F0F0
F0F0
F0F0
F0F0
F0F0
3FC0
3FC0
ENDCHAR
STARTCHAR germandbls
ENCODING 223
SWIDTH 1000 0
DWIDTH 16 0
BBX 12 14 0 -2
BITMAP
3FC0
3FC0
F0F0
F0F0
FFC0
FFC0
F0F0
F0F0
FFC0
FFC0
F000
F000
F000
F000
ENDCHAR
STARTCHAR agrave
ENCODING 224
SWIDTH 1000 0
DWIDTH 16 0
BBX 14 14 0 0
BITMAP
FC00
FC00
0000
0000
3FC0
3FC0
00F0
00F0
3FF0
3FF0
F0F0
F0F0
3FFC
3FFC
ENDCHAR
STARTCHAR aacute
ENCODING 225
SWIDTH 1000 0
DWIDTH 16 0
BBX 14 14 0 0
BITMAP
03F0
03F0
0000
0000
3FC0
3FC0
00F0
00F0
3FF0
3FF0
F0F0
F0F0
3FFC
3FFC
ENDCHAR
STARTCHAR acircumflex
ENCODING 226
SWIDTH 1000 0
DWIDTH 16 0
BBX 16 14 0 0
BITMAP
3FFC
3FFC
F00F
F00F
0FF0
0FF0
003C
003C
0FFC
0FFC
3C3C
3C3C
0FFF
0FFF
ENDCHAR
STARTCHAR adieresis
ENCODING 228
SWIDTH 1000 0
DWIDTH 16 0
BBX 14 14 0 0
BITMAP
F0F0
F0F0
0000
0000
3FC0
3FC0
00F0
00F0
3FF0
3FF0
F0F0
F0F0
3FFC
3FFC
ENDCHAR
STARTCHAR aring
ENCODING 229
SWIDTH 1000 0
DWIDTH 16 0
BBX 14 14 0 0
BITMAP
0F00
0F00
0F00
0F00
3FC0
3FC0
00F0
00F0
3FF0
3FF0
F0F0
F0F0
3FFC
3FFC
ENDCHAR
STARTCHAR ae
ENCODING 230
SWIDTH 1000 0
DWIDTH 16 0
BBX 16 10 0 0
BITMAP
3FFF
3FFF
00F0
00F0
3FFF
3FFF
F0F0
F0F0
3FFF
3FFF
ENDCHAR
STARTCHAR ccedilla
ENCODING 231
SWIDTH 1000 0
DWIDTH 16 0
BBX 12 12 0 -2
BITMAP
3FC0
3FC0
F000
F000
F000
F000
3FC0
3FC0
00F0
00F0
0FC0
0FC0
ENDCHAR
STARTCHAR egrave
ENCODING 232
SWIDTH 1000 0
DWIDTH 16 0
BBX 12 14 0 0
BITMAP
FC00
FC00
0000
0000
3FC0
3FC0
F0F0
F0F0
FFF0
FFF0
F000
F000
3FC0
3FC0
ENDCHAR
STARTCHAR eacute
ENCODING 233
SWIDTH 1000 0
DWIDTH 16 0
BBX 12 14 0 0
BITMAP
03F0
03F0
0000
0000
3FC0
3FC0
F0F0
F0F0
FFF0
FFF0
F000
F000
3FC0
3FC0
ENDCHAR
STARTCHAR ecircumflex
ENCODING 234
SWIDTH 1000 0
DWIDTH 16 0
BBX 16 14 0 0
BITMAP
3FFC
3FFC
F00F
F00F
0FF0
0FF0
3C3C
3C3C
3FFC
3FFC
3C00
3C00
0FF0
0FF0
ENDCHAR
STARTCHAR edieresis
ENCODING 235
SWIDTH 1000 0
DWIDTH 16 0
BBX 12 14 0 0
BITMAP
F0F0
F0F0
0000
0000
3FC0
3FC0
F0F0
F0F0
FFF0
FFF0
F000
F000
3FC0
3FC0
ENDCHAR
STARTCHAR igrave
ENCODING 236
SWIDTH 1000 0
DWIDTH 16 0
BBX 10 14 0 0
BITMAP
FC00
FC00
0000
0000
3F00
3F00
0F00
0F00
0F00
0F00
0F00
0F00
3FC0
3FC0
ENDCHAR
STARTCHAR iacute
ENCODING 237
SWIDTH 1000 0
DWIDTH 16 0
BBX 8 14 2 0
BITMAP
3F
3F
00
00
FC
FC
3C
3C
3C
3C
3C
3C
FF
FF
ENDCHAR
STARTCHAR icircumflex
ENCODING 238
SWIDTH 1000 0
DWIDTH 16 0
BBX 14 14 0 0
BITMAP
3FF0
3FF0
F03C
F03C
0FC0
0FC0
03C0
03C0
03C0
03C0
03C0
03C0
0FF0
0FF0
ENDCHAR
STARTCHAR idieresis
ENCODING 239
SWIDTH 1000 0
DWIDTH 16 0
BBX 12 14 0 0
BITMAP
F0F0
F0F0
0000
0000
3F00
3F00
0F00
0F00
0F00
0F00
0F00
0F00
3FC0
3FC0
ENDCHAR
STARTCHAR ntilde
ENCODING 241
SWIDTH 1000 0
DWIDTH 16 0
BBX 12 12 0 0
BITMAP
FFC0
FFC0
0000
0000
FFC0
FFC0
F0F0
F0F0
F0F0
F0F0
F0F0
F0F0
ENDCHAR
STARTCHAR ograve
ENCODING 242
SWIDTH 1000 0
DWIDTH 16 0
BBX 12 12 0 0
BITMAP
FC00
FC00
0000
0000
3FC0
3FC0
F0F0
F0F0
F0F0
F0F0
3FC0
3FC0
ENDCHAR
STARTCHAR oacute
ENCODING 243
SWIDTH 1000 0
DWIDTH 16 0
BBX 12 12 0 0
BITMAP
03F0
03F0
0000
0000
3FC0
3FC0
F0F0
F0F0
F0F0
F0F0
3FC0
3FC0
ENDCHAR
STARTCHAR ocircumflex
ENCODING 244
SWIDTH 1000 0
DWIDTH 16 0
BBX 12 14 0 0
BITMAP
3FC0
3FC0
F0F0
F0F0
0000
0000
3FC0
3FC0
F0F0
F0F0
F0F0
F0F0
3FC0
3FC0
ENDCHAR
STARTCHAR odieresis
ENCODING 246
SWIDTH 1000 0
DWIDTH 16 0
BBX 12 12 0 0
BITMAP
F0F0
F0F0
0000
0000
3FC0
3FC0
F0F0
F0F0
F0F0
F0F0
3FC0
3FC0
ENDCHAR
STARTCHAR divide
ENCODING 247
SWIDTH 1000 0
DWIDTH 16 0
BBX 12 14 0 0
BITMAP
0F00
0F00
0F00
0F00
0000
0000
FFF0
FFF0
0000
0000
0F00
0F00
0F00
0F00
ENDCHAR
STARTCHAR ugrave
ENCODING 249
SWIDTH 1000 0
DWIDTH 16 0
BBX 14 12 0 0
BITMAP
FC00
FC00
0000
0000
F0F0
F0F0
F0F0
F0F0
F0F0
F0F0
3FFC
3FFC
ENDCHAR
STARTCHAR uacute
ENCODING 250
SWIDTH 1000 0
DWIDTH 16 0
BBX 14 12 0 0
BITMAP
03F0
03F0
0000
0000
F0F0
F0F0
F0F0
F0F0
F0F0
F0F0
3FFC
3FFC
ENDCHAR
STARTCHAR ucircumflex
ENCODING 251
SWIDTH 1000 0
DWIDTH 16 0
BBX 14 14 0 0
BITMAP
3FC0
3FC0
F0F0
F0F0
0000
0000
F0F0
F0F0
F0F0
F0F0
F0F0
F0F0
3FFC
3FFC
ENDCHAR
STARTCHAR udieresis
ENCODING 252
SWIDTH 1000 0
DWIDTH 16 0
BBX 14 12 0 0
BITMAP
F0F0
F0F0
0000
0000
F0F0
F0F0
F0F0
F0F0
F0F0
F0F0
3FFC
3FFC
ENDCHAR
STARTCHAR ydieresis
ENCODING 255
SWIDTH 1000 0
DWIDTH 16 0
BBX 12 14 0 -2
BITMAP
F0F0
F0F0
0000
0000
F0F0
F0F0
F0F0
F0F0
3FF0
3FF0
00F0
00F0
FFC0
FFC0
ENDCHAR
STARTCHAR florin
ENCODING 402
SWIDTH 1000 0
DWIDTH 16 0
BBX 16 16 0 -2
BITMAP
00FC
00FC
03CF
03CF
03C0
03C0
0FF0
0FF0
03C0
03C0
03C0
03C0
F3C0
F3C0
3F00
3F00
ENDCHAR
STARTCHAR Gamma
ENCODING 915
SWIDTH 1000 0
DWIDTH 16 0
BBX 12 12 0 0
BITMAP
FFF0
FFF0
F0F0
F0F0
F000
F000
F000
F000
F000
F000
F000
F000
ENDCHAR
STARTCHAR Theta
ENCODING 920
SWIDTH 1000 0
DWIDTH 16 0
BBX 14 14 0 0
BITMAP
0FC0
0FC0
3CF0
3CF0
F03C
F03C
FFFC
FFFC
F03C
F03C
3CF0
3CF0
0FC0
0FC0
ENDCHAR
STARTCHAR Sigma
ENCODING 931
SWIDTH 1000 0
DWIDTH 16 0
BBX 12 14 0 0
BITMAP
FFF0
FFF0
F0F0
F0F0
3C00
3C00
0F00
0F00
3C00
3C00
F0F0
F0F0
FFF0
FFF0
ENDCHAR
STARTCHAR Phi
ENCODING 934
SWIDTH 1000 0
DWIDTH 16 0
BBX 12 16 0 -2
BITMAP
FFF0
FFF0
0F00
0F00
3FC0
3FC0
F0F0
F0F0
F0F0
F0F0
3FC0
3FC0
0F00
0F00
FFF0
FFF0
ENDCHAR
STARTCHAR uni03A9
ENCODING 937
SWIDTH 1000 0
DWIDTH 16 0
BBX 14 14 0 0
BITMAP
0FC0
0FC0
3CF0
3CF0
F03C
F03C
F03C
F03C
3CF0
3CF0
3CF0
3CF0
FCFC
FCFC
ENDCHAR
STARTCHAR alpha
ENCODING 945
SWIDTH 1000 0
DWIDTH 16 0
BBX 14 10 0 0
BITMAP
3F3C
3F3C
F3F0
F3F0
F0C0
F0C0
F3F0
F3F0
3F3C
3F3C
ENDCHAR
STARTCHAR delta
ENCODING 948
SWIDTH 1000 0
DWIDTH 16 0
BBX 12 14 0 0
BITMAP
03F0
03F0
0F00
0F00
03C0
03C0
3FF0
3FF0
F0F0
F0F0
F0F0
F0F0
3FC0
3FC0
ENDCHAR
STARTCHAR epsilon
ENCODING 949
SWIDTH 1000 0
DWIDTH 16 0
BBX 10 14 0 0
BITMAP
0FC0
0FC0
3C00
3C00
F000
F000
FFC0
FFC0
F000
F000
3C00
3C00
0FC0
0FC0
ENDCHAR
STARTCHAR pi
ENCODING 960
SWIDTH 1000 0
DWIDTH 16 0
BBX 14 12 0 0
BITMAP
FFFC
FFFC
3CF0
3CF0
3CF0
3CF0
3CF0
3CF0
3CF0
3CF0
3CF0
3CF0
ENDCHAR
STARTCHAR sigma
ENCODING 963
SWIDTH 1000 0
DWIDTH 16 0
BBX 14 10 0 0
BITMAP
3FFC
3FFC
F3C0
F3C0
F3C0
F3C0
F3C0
F3C0
3F00
3F00
ENDCHAR
STARTCHAR tau
ENCODING 964
SWIDTH 1000 0
DWIDTH 16 0
BBX 14 12 0 0
BITMAP
3F3C
3F3C
F3F0
F3F0
03C0
03C0
03C0
03C0
03C0
03C0
03C0
03C0
ENDCHAR
STARTCHAR phi
ENCODING 966
SWIDTH 1000 0
DWIDTH 16 0
BBX 16 16 0 -2
BITMAP
003C
003C
00F0
00F0
3FFC
3FFC
F3CF
F3CF
F3CF
F3CF
3FFC
3FFC
3C00
3C00
F000
F000
ENDCHAR
STARTCHAR bullet
ENCODING 8226
SWIDTH 1000 0
DWIDTH 16 0
BBX 8 8 4 2
BITMAP
3C
3C
FF
FF
FF
FF
3C
3C
ENDCHAR
STARTCHAR exclamdbl
ENCODING 8252
SWIDTH 1000 0
DWIDTH 16 0
BBX 12 14 2 0
BITMAP
F0F0
F0F0
F0F0
F0F0
F0F0
F0F0
F0F0
F0F0
F0F0
F0F0
0000
0000
F0F0
F0F0
ENDCHAR
STARTCHAR uni207F
ENCODING 8319
SWIDTH 1000 0
DWIDTH 16 0
BBX 10 10 2 4
BITMAP
FF00
FF00
F3C0
F3C0
F3C0
F3C0
F3C0
F3C0
F3C0
F3C0
ENDCHAR
STARTCHAR peseta
ENCODING 8359
SWIDTH 1000 0
DWIDTH 16 0
BBX 16 16 0 -2
BITMAP
FFC0
FFC0
F0F0
F0F0
F0F0
F0F0
FFCC
FFCC
F03C
F03C
F0FF
F0FF
F03C
F03C
F03F
F03F
ENDCHAR
STARTCHAR arrowleft
ENCODING 8592
SWIDTH 1000 0
DWIDTH 16 0
BBX 14 10 0 2
BITMAP
0F00
0F00
3C00
3C00
FFFC
FFFC
3C00
3C00
0F00
0F00
ENDCHAR
STARTCHAR arrowup
ENCODING 8593
SWIDTH 1000 0
DWIDTH 16 0
BBX 12 14 2 0
BITMAP
0F00
0F00
3FC0
3FC0
FFF0
FFF0
0F00
0F00
0F00
0F00
0F00
0F00
0F00
0F00
ENDCHAR
STARTCHAR arrowright
ENCODING 8594
SWIDTH 1000 0
DWIDTH 16 0
BBX 14 10 0 2
BITMAP
03C0
03C0
00F0
00F0
FFFC
FFFC
00F0
00F0
03C0
03C0
ENDCHAR
STARTCHAR arrowdown
ENCODING 8595
SWIDTH 1000 0
DWIDTH 16 0
BBX 12 14 2 0
BITMAP
0F00
0F00
0F00
0F00
0F00
0F00
0F00
0F00
FFF0
FFF0
3FC0
3FC0
0F00
0F00
ENDCHAR
STARTCHAR arrowboth
ENCODING 8596
SWIDTH 1000 0
DWIDTH 16 0
BBX 16 10 0 2
BITMAP
0C30
0C30
3C3C
3C3C
FFFF
FFFF
3C3C
3C3C
0C30
0C30
ENDCHAR
STARTCHAR arrowupdn
ENCODING 8597
SWIDTH 1000 0
DWIDTH 16 0
BBX 12 16 2 -2
BITMAP
0F00
0F00
3FC0
3FC0
FFF0
FFF0
0F00
0F00
0F00
0F00
FFF0
FFF0
3FC0
3FC0
0F00
0F00
ENDCHAR
STARTCHAR arrowupdnbse
ENCODING 8616
SWIDTH 1000 0
DWIDTH 16 0
BBX 16 16 0 -2
BITMAP
03C0
03C0
0FF0
0FF0
3FFC
3FFC
03C0
03C0
3FFC
3FFC
0FF0
0FF0
03C0
03C0
FFFF
FFFF
ENDCHAR
STARTCHAR uni2219
ENCODING 8729
SWIDTH 1000 0
DWIDTH 16 0
BBX 4 4 6 4
BITMAP
F0
F0
F0
F0
ENDCHAR
STARTCHAR radical
ENCODING 8730
SWIDTH 1000 0
DWIDTH 16 0
BBX 16 16 0 -2
BITMAP
00FF
00FF
00F0
00F0
00F0
00F0
00F0
00F0
FCF0
FCF0
3CF0
3CF0
0FF0
0FF0
03F0
03F0
ENDCHAR
STARTCHAR infinity
ENCODING 8734
SWIDTH 1000 0
DWIDTH 16 0
BBX 16 8 0 2
BITMAP
3FFC
3FFC
F3CF
F3CF
F3CF
F3CF
3FFC
3FFC
ENDCHAR
STARTCHAR orthogonal
ENCODING 8735
SWIDTH 1000 0
DWIDTH 16 0
BBX 14 8 0 2
BITMAP
F000
F000
F000
F000
F000
F000
FFFC
FFFC
ENDCHAR
STARTCHAR intersection
ENCODING 8745
SWIDTH 1000 0
DWIDTH 16 0
BBX 12 14 0 0
BITMAP
3FC0
3FC0
F0F0
F0F0
F0F0
F0F0
F0F0
F0F0
F0F0
F0F0
F0F0
F0F0
F0F0
F0F0
ENDCHAR
STARTCHAR approxequal
ENCODING 8776
SWIDTH 1000 0
DWIDTH 16 0
BBX 14 10 0 2
BITMAP
3F3C
3F3C
F3F0
F3F0
0000
0000
3F3C
3F3C
F3F0
F3F0
ENDCHAR
STARTCHAR equivalence
ENCODING 8801
SWIDTH 1000 0
DWIDTH 16 0
BBX 12 10 0 2
BITMAP
FFF0
FFF0
0000
0000
FFF0
FFF0
0000
0000
FFF0
FFF0
ENDCHAR
STARTCHAR lessequal
ENCODING 8804
SWIDTH 1000 0
DWIDTH 16 0
BBX 12 14 0 0
BITMAP
03C0
03C0
0F00
0F00
3C00
3C00
0F00
0F00
03C0
03C0
0000
0000
FFF0
FFF0
ENDCHAR
STARTCHAR greaterequal
ENCODING 8805
SWIDTH 1000 0
DWIDTH 16 0
BBX 12 14 0 0
BITMAP
3C00
3C00
0F00
0F00
03C0
03C0
0F00
0F00
3C00
3C00
0000
0000
FFF0
FFF0
ENDCHAR
STARTCHAR house
ENCODING 8962
SWIDTH 1000 0
DWIDTH 16 0
BBX 1 1 15 -2
BITMAP
00
ENDCHAR
STARTCHAR revlogicalnot
ENCODING 8976
SWIDTH 1000 0
DWIDTH 16 0
BBX 12 6 0 2
BITMAP
FFF0
FFF0
F000
F000
F000
F000
ENDCHAR
STARTCHAR integraltp
ENCODING 8992
SWIDTH 1000 0
DWIDTH 16 0
BBX 10 16 6 -2
BITMAP
3F00
3F00
F3C0
F3C0
F3C0
F3C0
F000
F000
F000
F000
F000
F000
F000
F000
F000
F000
ENDCHAR
STARTCHAR integralbt
ENCODING 8993
SWIDTH 1000 0
DWIDTH 16 0
BBX 10 16 0 -2
BITMAP
03C0
03C0
03C0
03C0
03C0
03C0
03C0
03C0
03C0
03C0
F3C0
F3C0
F3C0
F3C0
3F00
3F00
ENDCHAR
STARTCHAR SF100000
ENCODING 9472
SWIDTH 1000 0
DWIDTH 16 0
BBX 16 2 0 4
BITMAP
FFFF
FFFF
ENDCHAR
STARTCHAR SF110000
ENCODING 9474
SWIDTH 1000 0
DWIDTH 16 0
BBX 4 16 6 -2
BITMAP
F0
F0
F0
F0
F0
F0
F0
F0
F0
F0
F0
F0
F0
F0
F0
F0
ENDCHAR
STARTCHAR SF010000
ENCODING 9484
SWIDTH 1000 0
DWIDTH 16 0
BBX 10 8 6 -2
BITMAP
FFC0
FFC0
F000
F000
F000
F000
F000
F000
ENDCHAR
STARTCHAR SF030000
ENCODING 9488
SWIDTH 1000 0
DWIDTH 16 0
BBX 10 8 0 -2
BITMAP
FFC0
FFC0
03C0
03C0
03C0
03C0
03C0
03C0
ENDCHAR
STARTCHAR SF020000
ENCODING 9492
SWIDTH 1000 0
DWIDTH 16 0
BBX 10 10 6 4
BITMAP
F000
F000
F000
F000
F000
F000
F000
F000
FFC0
FFC0
ENDCHAR
STARTCHAR SF040000
ENCODING 9496
SWIDTH 1000 0
DWIDTH 16 0
BBX 10 10 0 4
BITMAP
03C0
03C0
03C0
03C0
03C0
03C0
03C0
03C0
FFC0
FFC0
ENDCHAR
STARTCHAR SF080000
ENCODING 9500
SWIDTH 1000 0
DWIDTH 16 0
BBX 10 16 6 -2
BITMAP
F000
F000
F000
F000
F000
F000
F000
F000
FFC0
FFC0
F000
F000
F000
F000
F000
F000
ENDCHAR
STARTCHAR SF090000
ENCODING 9508
SWIDTH 1000 0
DWIDTH 16 0
BBX 10 16 0 -2
BITMAP
03C0
03C0
03C0
03C0
03C0
03C0
03C0
03C0
FFC0
FFC0
03C0
03C0
03C0
03C0
03C0
03C0
ENDCHAR
STARTCHAR SF060000
ENCODING 9516
SWIDTH 1000 0
DWIDTH 16 0
BBX 16 8 0 -2
BITMAP
FFFF
FFFF
03C0
03C0
03C0
03C0
03C0
03C0
ENDCHAR
STARTCHAR SF070000
ENCODING 9524
SWIDTH 1000 0
DWIDTH 16 0
BBX 16 10 0 4
BITMAP
03C0
03C0
03C0
03C0
03C0
03C0
03C0
03C0
FFFF
FFFF
ENDCHAR
STARTCHAR SF050000
ENCODING 9532
SWIDTH 1000 0
DWIDTH 16 0
BBX 16 16 0 -2
BITMAP
03C0
03C0
03C0
03C0
03C0
03C0
03C0
03C0
FFFF
FFFF
03C0
03C0
03C0
03C0
03C0
03C0
ENDCHAR
STARTCHAR SF430000
ENCODING 9552
SWIDTH 1000 0
DWIDTH 16 0
BBX 16 6 0 4
BITMAP
FFFF
FFFF
0000
0000
FFFF
FFFF
ENDCHAR
STARTCHAR SF240000
ENCODING 9553
SWIDTH 1000 0
DWIDTH 16 0
BBX 10 16 4 -2
BITMAP
F3C0
F3C0
F3C0
F3C0
F3C0
F3C0
F3C0
F3C0
F3C0
F3C0
F3C0
F3C0
F3C0
F3C0
F3C0
F3C0
ENDCHAR
STARTCHAR SF510000
ENCODING 9554
SWIDTH 1000 0
DWIDTH 16 0
BBX 10 12 6 -2
BITMAP
FFC0
FFC0
F000
F000
FFC0
FFC0
F000
F000
F000
F000
F000
F000
ENDCHAR
STARTCHAR SF520000
ENCODING 9555
SWIDTH 1000 0
DWIDTH 16 0
BBX 12 8 4 -2
BITMAP
FFF0
FFF0
F3C0
F3C0
F3C0
F3C0
F3C0
F3C0
ENDCHAR
STARTCHAR SF390000
ENCODING 9556
SWIDTH 1000 0
DWIDTH 16 0
BBX 12 12 4 -2
BITMAP
FFF0
FFF0
F000
F000
F3F0
F3F0
F3C0
F3C0
F3C0
F3C0
F3C0
F3C0
ENDCHAR
STARTCHAR SF220000
ENCODING 9557
SWIDTH 1000 0
DWIDTH 16 0
BBX 10 12 0 -2
BITMAP
FFC0
FFC0
03C0
03C0
FFC0
FFC0
03C0
03C0
03C0
03C0
03C0
03C0
ENDCHAR
STARTCHAR SF210000
ENCODING 9558
SWIDTH 1000 0
DWIDTH 16 0
BBX 14 8 0 -2
BITMAP
FFFC
FFFC
0F3C
0F3C
0F3C
0F3C
0F3C
0F3C
ENDCHAR
STARTCHAR SF250000
ENCODING 9559
SWIDTH 1000 0
DWIDTH 16 0
BBX 14 12 0 -2
BITMAP
FFFC
FFFC
003C
003C
FF3C
FF3C
0F3C
0F3C
0F3C
0F3C
0F3C
0F3C
ENDCHAR
STARTCHAR SF500000
ENCODING 9560
SWIDTH 1000 0
DWIDTH 16 0
BBX 10 10 6 4
BITMAP
F000
F000
F000
F000
FFC0
FFC0
F000
F000
FFC0
FFC0
ENDCHAR
STARTCHAR SF490000
ENCODING 9561
SWIDTH 1000 0
DWIDTH 16 0
BBX 12 10 4 4
BITMAP
F3C0
F3C0
F3C0
F3C0
F3C0
F3C0
F3C0
F3C0
FFF0
FFF0
ENDCHAR
STARTCHAR SF380000
ENCODING 9562
SWIDTH 1000 0
DWIDTH 16 0
BBX 12 10 4 4
BITMAP
F3C0
F3C0
F3C0
F3C0
F3F0
F3F0
F000
F000
FFF0
FFF0
ENDCHAR
STARTCHAR SF280000
ENCODING 9563
SWIDTH 1000 0
DWIDTH 16 0
BBX 10 10 0 4
BITMAP
03C0
03C0
03C0
03C0
FFC0
FFC0
03C0
03C0
FFC0
FFC0
ENDCHAR
STARTCHAR SF270000
ENCODING 9564
SWIDTH 1000 0
DWIDTH 16 0
BBX 14 10 0 4
BITMAP
0F3C
0F3C
0F3C
0F3C
0F3C
0F3C
0F3C
0F3C
FFFC
FFFC
ENDCHAR
STARTCHAR SF260000
ENCODING 9565
SWIDTH 1000 0
DWIDTH 16 0
BBX 14 10 0 4
BITMAP
0F3C
0F3C
0F3C
0F3C
FF3C
FF3C
003C
003C
FFFC
FFFC
ENDCHAR
STARTCHAR SF360000
ENCODING 9566
SWIDTH 1000 0
DWIDTH 16 0
BBX 10 16 6 -2
BITMAP
F000
F000
F000
F000
FFC0
FFC0
F000
F000
FFC0
FFC0
F000
F000
F000
F000
F000
F000
ENDCHAR
STARTCHAR SF370000
ENCODING 9567
SWIDTH 1000 0
DWIDTH 16 0
BBX 12 16 4 -2
BITMAP
F3C0
F3C0
F3C0
F3C0
F3C0
F3C0
F3C0
F3C0
F3F0
F3F0
F3C0
F3C0
F3C0
F3C0
F3C0
F3C0
ENDCHAR
STARTCHAR SF420000
ENCODING 9568
SWIDTH 1000 0
DWIDTH 16 0
BBX 12 16 4 -2
BITMAP
F3C0
F3C0
F3C0
F3C0
F3F0
F3F0
F000
F000
F3F0
F3F0
F3C0
F3C0
F3C0
F3C0
F3C0
F3C0
ENDCHAR
STARTCHAR SF190000
ENCODING 9569
SWIDTH 1000 0
DWIDTH 16 0
BBX 10 16 0 -2
BITMAP
03C0
03C0
03C0
03C0
FFC0
FFC0
03C0
03C0
FFC0
FFC0
03C0
03C0
03C0
03C0
03C0
03C0
ENDCHAR
STARTCHAR SF200000
ENCODING 9570
SWIDTH 1000 0
DWIDTH 16 0
BBX 14 16 0 -2
BITMAP
0F3C
0F3C
0F3C
0F3C
0F3C
0F3C
0F3C
0F3C
FF3C
FF3C
0F3C
0F3C
0F3C
0F3C
0F3C
0F3C
ENDCHAR
STARTCHAR SF230000
ENCODING 9571
SWIDTH 1000 0
DWIDTH 16 0
BBX 14 16 0 -2
BITMAP
0F3C
0F3C
0F3C
0F3C
FF3C
FF3C
003C
003C
FF3C
FF3C
0F3C
0F3C
0F3C
0F3C
0F3C
0F3C
ENDCHAR
STARTCHAR SF470000
ENCODING 9572
SWIDTH 1000 0
DWIDTH 16 0
BBX 16 12 0 -2
BITMAP
FFFF
FFFF
0000
0000
FFFF
FFFF
03C0
03C0
03C0
03C0
03C0
03C0
ENDCHAR
STARTCHAR SF480000
ENCODING 9573
SWIDTH 1000 0
DWIDTH 16 0
BBX 16 8 0 -2
BITMAP
FFFF
FFFF
0F3C
0F3C
0F3C
0F3C
0F3C
0F3C
ENDCHAR
STARTCHAR SF410000
ENCODING 9574
SWIDTH 1000 0
DWIDTH 16 0
BBX 16 12 0 -2
BITMAP
FFFF
FFFF
0000
0000
FF3F
FF3F
0F3C
0F3C
0F3C
0F3C
0F3C
0F3C
ENDCHAR
STARTCHAR SF450000
ENCODING 9575
SWIDTH 1000 0
DWIDTH 16 0
BBX 16 10 0 4
BITMAP
03C0
03C0
03C0
03C0
FFFF
FFFF
0000
0000
FFFF
FFFF
ENDCHAR
STARTCHAR SF460000
ENCODING 9576
SWIDTH 1000 0
DWIDTH 16 0
BBX 16 10 0 4
BITMAP
0F3C
0F3C
0F3C
0F3C
0F3C
0F3C
0F3C
0F3C
FFFF
FFFF
ENDCHAR
STARTCHAR SF400000
ENCODING 9577
SWIDTH 1000 0
DWIDTH 16 0
BBX 16 10 0 4
BITMAP
0F3C
0F3C
0F3C
0F3C
FF3F
FF3F
0000
0000
FFFF
FFFF
ENDCHAR
STARTCHAR SF540000
ENCODING 9578
SWIDTH 1000 0
DWIDTH 16 0
BBX 16 16 0 -2
BITMAP
03C0
03C0
03C0
03C0
FFFF
FFFF
03C0
03C0
FFFF
FFFF
03C0
03C0
03C0
03C0
03C0
03C0
ENDCHAR
STARTCHAR SF530000
ENCODING 9579
SWIDTH 1000 0
DWIDTH 16 0
BBX 16 16 0 -2
BITMAP
0F3C
0F3C
0F3C
0F3C
0F3C
0F3C
0F3C
0F3C
FFFF
FFFF
0F3C
0F3C
0F3C
0F3C
0F3C
0F3C
ENDCHAR
STARTCHAR SF440000
ENCODING 9580
SWIDTH 1000 0
DWIDTH 16 0
BBX 16 16 0 -2
BITMAP
0F3C
0F3C
0F3C
0F3C
FF3F
FF3F
0000
0000
FF3F
FF3F
0F3C
0F3C
0F3C
0F3C
0F3C
0F3C
ENDCHAR
STARTCHAR upblock
ENCODING 9600
SWIDTH 1000 0
DWIDTH 16 0
BBX 16 8 0 6
BITMAP
FFFF
FFFF
FFFF
FFFF
FFFF
FFFF
FFFF
FFFF
ENDCHAR
STARTCHAR dnblock
ENCODING 9604
SWIDTH 1000 0
DWIDTH 16 0
BBX 16 8 0 -2
BITMAP
FFFF
FFFF
FFFF
FFFF
FFFF
FFFF
FFFF
FFFF
ENDCHAR
STARTCHAR block
ENCODING 9608
SWIDTH 1000 0
DWIDTH 16 0
BBX 16 16 0 -2
BITMAP
FFFF
FFFF
FFFF
FFFF
FFFF
FFFF
FFFF
FFFF
FFFF
FFFF
FFFF
FFFF
FFFF
FFFF
FFFF
FFFF
ENDCHAR
STARTCHAR lfblock
ENCODING 9612
SWIDTH 1000 0
DWIDTH 16 0
BBX 8 16 0 -2
BITMAP
FF
FF
FF
FF
FF
FF
FF
FF
FF
FF
FF
FF
FF
FF
FF
FF
ENDCHAR
STARTCHAR rtblock
ENCODING 9616
SWIDTH 1000 0
DWIDTH 16 0
BBX 8 16 8 -2
BITMAP
FF
FF
FF
FF
FF
FF
FF
FF
FF
FF
FF
FF
FF
FF
FF
FF
ENDCHAR
STARTCHAR ltshade
ENCODING 9617
SWIDTH 1000 0
DWIDTH 16 0
BBX 14 16 0 -2
BITMAP
0C0C
0C0C
C0C0
C0C0
0C0C
0C0C
C0C0
C0C0
0C0C
0C0C
C0C0
C0C0
0C0C
0C0C
C0C0
C0C0
ENDCHAR
STARTCHAR shade
ENCODING 9618
SWIDTH 1000 0
DWIDTH 16 0
BBX 16 16 0 -2
BITMAP
3333
3333
CCCC
CCCC
3333
3333
CCCC
CCCC
3333
3333
CCCC
CCCC
3333
3333
CCCC
CCCC
ENDCHAR
STARTCHAR dkshade
ENCODING 9619
SWIDTH 1000 0
DWIDTH 16 0
BBX 16 16 0 -2
BITMAP
F3CF
F3CF
3F3F
3F3F
F3CF
F3CF
FCFC
FCFC
F3CF
F3CF
3F3F
3F3F
F3CF
F3CF
FCFC
FCFC
ENDCHAR
STARTCHAR filledbox
ENCODING 9632
SWIDTH 1000 0
DWIDTH 16 0
BBX 8 8 4 2
BITMAP
FF
FF
FF
FF
FF
FF
FF
FF
ENDCHAR
STARTCHAR filledrect
ENCODING 9644
SWIDTH 1000 0
DWIDTH 16 0
BBX 12 6 2 0
BITMAP
FFF0
FFF0
FFF0
FFF0
FFF0
FFF0
ENDCHAR
STARTCHAR triagup
ENCODING 9650
SWIDTH 1000 0
DWIDTH 16 0
BBX 16 10 0 2
BITMAP
03C0
03C0
0FF0
0FF0
3FFC
3FFC
FFFF
FFFF
FFFF
FFFF
ENDCHAR
STARTCHAR triagrt
ENCODING 9658
SWIDTH 1000 0
DWIDTH 16 0
BBX 14 14 0 0
BITMAP
C000
C000
FC00
FC00
FFC0
FFC0
FFFC
FFFC
FFC0
FFC0
FC00
FC00
C000
C000
ENDCHAR
STARTCHAR triagdn
ENCODING 9660
SWIDTH 1000 0
DWIDTH 16 0
BBX 16 10 0 2
BITMAP
FFFF
FFFF
FFFF
FFFF
3FFC
3FFC
0FF0
0FF0
03C0
03C0
ENDCHAR
STARTCHAR triaglf
ENCODING 9668
SWIDTH 1000 0
DWIDTH 16 0
BBX 14 14 0 0
BITMAP
000C
000C
00FC
00FC
0FFC
0FFC
FFFC
FFFC
0FFC
0FFC
00FC
00FC
000C
000C
ENDCHAR
STARTCHAR circle
ENCODING 9675
SWIDTH 1000 0
DWIDTH 16 0
BBX 12 12 2 0
BITMAP
3FC0
3FC0
F0F0
F0F0
C030
C030
C030
C030
F0F0
F0F0
3FC0
3FC0
ENDCHAR
STARTCHAR invbullet
ENCODING 9688
SWIDTH 1000 0
DWIDTH 16 0
BBX 16 16 0 -2
BITMAP
FFFF
FFFF
FFFF
FFFF
FC3F
FC3F
F00F
F00F
F00F
F00F
FC3F
FC3F
FFFF
FFFF
FFFF
FFFF
ENDCHAR
STARTCHAR invcircle
ENCODING 9689
SWIDTH 1000 0
DWIDTH 16 0
BBX 16 16 0 -2
BITMAP
FFFF
FFFF
F00F
F00F
C3C3
C3C3
CFF3
CFF3
CFF3
CFF3
C3C3
C3C3
F00F
F00F
FFFF
FFFF
ENDCHAR
STARTCHAR smileface
ENCODING 9786
SWIDTH 1000 0
DWIDTH 16 0
BBX 16 16 0 -2
BITMAP
3FFC
3FFC
C003
C003
CC33
CC33
C003
C003
CFF3
CFF3
C3C3
C3C3
C003
C003
3FFC
3FFC
ENDCHAR
STARTCHAR invsmileface
ENCODING 9787
SWIDTH 1000 0
DWIDTH 16 0
BBX 16 16 0 -2
BITMAP
3FFC
3FFC
FFFF
FFFF
F3CF
F3CF
FFFF
FFFF
F00F
F00F
FC3F
FC3F
FFFF
FFFF
3FFC
3FFC
ENDCHAR
STARTCHAR sun
ENCODING 9788
SWIDTH 1000 0
DWIDTH 16 0
BBX 16 16 0 -2
BITMAP
03C0
03C0
F3CF
F3CF
0FF0
0FF0
FC3F
FC3F
FC3F
FC3F
0FF0
0FF0
F3CF
F3CF
03C0
03C0
ENDCHAR
STARTCHAR female
ENCODING 9792
SWIDTH 1000 0
DWIDTH 16 0
BBX 12 16 2 -2
BITMAP
3FC0
3FC0
F0F0
F0F0
F0F0
F0F0
F0F0
F0F0
3FC0
3FC0
0F00
0F00
FFF0
FFF0
0F00
0F00
ENDCHAR
STARTCHAR male
ENCODING 9794
SWIDTH 1000 0
DWIDTH 16 0
BBX 16 16 0 -2
BITMAP
00FF
00FF
003F
003F
00FF
00FF
3FF3
3FF3
F0F0
F0F0
F0F0
F0F0
F0F0
F0F0
3FC0
3FC0
ENDCHAR
STARTCHAR spade
ENCODING 9824
SWIDTH 1000 0
DWIDTH 16 0
BBX 14 16 0 -2
BITMAP
0300
0300
0300
0300
0FC0
0FC0
3FF0
3FF0
FFFC
FFFC
3FF0
3FF0
0300
0300
0FC0
0FC0
ENDCHAR
STARTCHAR club
ENCODING 9827
SWIDTH 1000 0
DWIDTH 16 0
BBX 14 16 0 -2
BITMAP
0FC0
0FC0
3FF0
3FF0
0FC0
0FC0
FFFC
FFFC
FFFC
FFFC
F33C
F33C
0300
0300
0FC0
0FC0
ENDCHAR
STARTCHAR heart
ENCODING 9829
SWIDTH 1000 0
DWIDTH 16 0
BBX 14 14 0 0
BITMAP
3CF0
3CF0
FFFC
FFFC
FFFC
FFFC
FFFC
FFFC
3FF0
3FF0
0FC0
0FC0
0300
0300
ENDCHAR
STARTCHAR diamond
ENCODING 9830
SWIDTH 1000 0
DWIDTH 16 0
BBX 14 14 0 0
BITMAP
0300
0300
0FC0
0FC0
3FF0
3FF0
FFFC
FFFC
3FF0
3FF0
0FC0
0FC0
0300
0300
ENDCHAR
STARTCHAR musicalnote
ENCODING 9834
SWIDTH 1000 0
DWIDTH 16 0
BBX 16 16 0 -2
BITMAP
0FFF
0FFF
0F0F
0F0F
0FFF
0FFF
0F00
0F00
0F00
0F00
3F00
3F00
FF00
FF00
FC00
FC00
ENDCHAR
STARTCHAR musicalnotedbl
ENCODING 9835
SWIDTH 1000 0
DWIDTH 16 0
BBX 16 16 0 -2
BITMAP
3FFF
3FFF
3C0F
3C0F
3FFF
3FFF
3C0F
3C0F
3C0F
3C0F
3C3F
3C3F
FC3C
FC3C
F000
F000
ENDCHAR
STARTCHAR uni3044
ENCODING 12356
SWIDTH 1000 0
DWIDTH 16 0
BBX 1 1 15 -2
BITMAP
00
ENDCHAR
STARTCHAR uni3046
ENCODING 12358
SWIDTH 1000 0
DWIDTH 16 0
BBX 1 1 15 -2
BITMAP
00
ENDCHAR
STARTCHAR uni304B
ENCODING 12363
SWIDTH 1000 0
DWIDTH 16 0
BBX 1 1 15 -2
BITMAP
00
ENDCHAR
STARTCHAR uni3057
ENCODING 12375
SWIDTH 1000 0
DWIDTH 16 0
BBX 1 1 15 -2
BITMAP
00
ENDCHAR
STARTCHAR uni306E
ENCODING 12398
SWIDTH 1000 0
DWIDTH 16 0
BBX 1 1 15 -2
BITMAP
00
ENDCHAR
STARTCHAR uni3093
ENCODING 12435
SWIDTH 1000 0
DWIDTH 16 0
BBX 1 1 15 -2
BITMAP
00
ENDCHAR
STARTCHAR .notdef
ENCODING -1
SWIDTH 1000 0
DWIDTH 16 0
BBX 14 12 2 0
BITMAP
FFFC
FFFC
C00C
C00C
C00C
C00C
C00C
C00C
C00C
C00C
FFFC
FFFC
ENDCHAR
ENDFONT
